<svg width="26" height="26" viewBox="0 0 26 26" fill="none" xmlns="http://www.w3.org/2000/svg">
<path d="M8.17648 23.5634C17.9878 23.5634 23.3542 15.4347 23.3542 8.3856C23.3542 8.15472 23.3542 7.92489 23.3386 7.69609C24.3826 6.94095 25.2838 6.00596 26 4.93488C25.0265 5.36649 23.9937 5.6494 22.9362 5.77416C24.0498 5.10758 24.8833 4.05901 25.2814 2.82368C24.2343 3.44509 23.0887 3.883 21.8941 4.11848C21.0898 3.26328 20.0261 2.69698 18.8675 2.50723C17.709 2.31747 16.5202 2.51484 15.4851 3.06879C14.4501 3.62274 13.6264 4.50239 13.1416 5.57161C12.6569 6.64083 12.538 7.84002 12.8034 8.9836C10.6826 8.87722 8.6079 8.32606 6.71391 7.36589C4.81992 6.40572 3.14899 5.05802 1.8096 3.41024C1.12746 4.58457 0.918528 5.97474 1.22536 7.2977C1.53219 8.62066 2.3317 9.77695 3.46112 10.5311C2.61217 10.5062 1.7817 10.2772 1.04 9.86344V9.93104C1.04034 11.1626 1.46667 12.3562 2.24669 13.3093C3.02672 14.2624 4.1124 14.9163 5.3196 15.1602C4.53427 15.3744 3.71028 15.4057 2.91096 15.2517C3.25197 16.3115 3.91563 17.2383 4.80918 17.9025C5.70272 18.5667 6.78148 18.9351 7.89464 18.9562C6.78864 19.8255 5.52209 20.4683 4.16745 20.8477C2.8128 21.2271 1.39665 21.3356 0 21.1672C2.43949 22.7326 5.27792 23.563 8.17648 23.5592" fill="#899097"/>
</svg>
